<svg width="20" height="20" viewBox="0 0 20 20" fill="none" xmlns="http://www.w3.org/2000/svg">
<path d="M10 5V15M7.5 12.6515L8.23239 13.2008C9.20867 13.9331 10.7915 13.9331 11.7678 13.2008C12.7441 12.4686 12.7441 11.2814 11.7678 10.5492C11.2796 10.183 10.6398 9.99996 9.99991 10C9.3958 10 8.79183 9.817 8.33091 9.45085C7.40916 8.71861 7.40916 7.53143 8.33091 6.7992C9.25266 6.06696 10.7471 6.06696 11.6689 6.7992L12.0146 7.07386M17.5 10C17.5 14.1421 14.1421 17.5 10 17.5C5.85786 17.5 2.5 14.1421 2.5 10C2.5 5.85786 5.85786 2.5 10 2.5C14.1421 2.5 17.5 5.85786 17.5 10Z" stroke="#202224" stroke-width="1.5" stroke-linecap="round" stroke-linejoin="round"/>
</svg>
